<svg version="1.2" xmlns="http://www.w3.org/2000/svg" viewBox="0 0 1260 1404" width="200" height="223">
	<style>
		.s0 { fill: #ec1c24 } 
		.s1 { fill: #231f20 } 
		.s2 { fill: none } 
		.s3 { fill: #ea2227 } 
		.s4 { fill: #f69220 } 
	</style>
	<path id="path20" class="s0" d="m475.76 871.34h-300c-5.17 0-9.31 4.14-9.31 9.32v22.75c0 5.18 4.14 9.31 9.31 9.31h222.41v123.11c-6.2-9.31-13.45-17.59-21.72-25.86-25.86-26.9-54.83-40.35-83.79-40.35-22.76 0-43.45 11.38-58.97 33.1-12.41 17.59-20.69 38.28-20.69 56.9 0 19.66 3.1 44.48 17.59 67.24 18.62 27.93 47.58 36.21 73.44 36.21 34.14 0 63.11-23.79 63.11-53.79 0-17.59-9.31-33.11-25.86-42.42l-16.56-9.31v24.83c-1.03 6.21-13.44 17.59-26.89 17.59-11.38 0-22.76-5.18-28.97-11.38-5.17-5.18-6.2-13.45-6.2-19.66q0-12.41 9.31-24.83c7.24-8.27 14.48-12.41 25.86-12.41 30-1.03 54.83 13.45 75.51 43.45 16.56 24.83 24.83 48.62 24.83 74.48l1.04 62.07 44.48 26.9c1.03 1.03 3.1 1.03 5.17 1.03 5.17 0 9.31-4.14 9.31-9.31v-316.55h17.59c5.17 0 9.31-4.14 9.31-9.31v-22.76c0-6.21-4.14-10.35-9.31-10.35z"/>
	<path id="path22" class="s0" d="m1073.69 871.34h-379.66c-5.17 0-9.31 4.14-9.31 9.32v42.41c-36.2-38.28-69.31-57.93-99.31-57.93-27.93-1.04-52.75 6.2-71.38 21.72-19.65 15.52-31.03 34.14-31.03 55.86 0 66.21 74.48 66.21 93.1 55.87 3.11-2.07 7.24-4.14 12.42-4.14 15.51 0 20.69 11.38 20.69 21.72 0 15.52-21.73 28.97-48.62 28.97-14.49 0-23.8-4.14-30-12.42l-11.38-17.58-8.28 19.65c-2.07 5.18-4.14 10.35-4.14 17.59 0 15.52 8.28 30 21.73 42.41 13.45 11.38 30 17.59 47.58 17.59 27.93 0 51.73-10.35 67.24-31.04 12.42-16.55 18.63-36.2 18.63-57.93 0-12.41-4.14-24.82-14.49-39.31-12.41-17.58-26.89-25.86-43.45-25.86-6.2 0-13.44 2.07-20.69 4.14-3.1 1.03-8.27 2.07-9.31 2.07-2.06 0-7.24-1.04-10.34-5.17-2.07-2.07-6.21-7.25-6.21-14.49 1.04-16.55 15.52-33.1 41.38-33.1h1.04q26.38 0 52.76 24.83c13.44 12.41 23.79 25.86 32.06 40.34v235.86l44.49 25.87c1.03 1.03 3.1 1.03 5.17 1.03 5.17 0 9.31-4.14 9.31-9.31v-316.55h67.24v204.83l53.79 21.72c1.04 0 2.07 1.03 3.11 1.03 5.17 0 9.31-4.13 9.31-8.27v-2.07c9.31-60 35.17-102.41 79.65-127.24v11.38c0 8.27 1.04 31.03 1.04 43.45 0 7.24 1.03 12.41 1.03 16.55 0 22.76 3.11 60 11.38 85.86 14.48 50.69 39.31 62.07 57.93 63.1h1.04c10.34 0 18.62-3.1 24.82-8.27 3.11-3.11 7.25-9.31 7.25-19.66 0-9.31-1.04-16.55-4.14-21.72l-4.14-7.24-8.28 2.07c-9.31 2.06-12.41 2.06-13.44 2.06h-2.07c-2.07 0-3.11 0-4.14-1.03-3.1-1.03-8.28-6.21-12.41-22.76-3.11-12.41-4.14-27.93-4.14-37.24 0-66.21 13.45-115.86 35.17-127.24l1.03-1.04c3.11-2.06 5.18-5.17 5.18-8.27 0-2.07 0-3.1-1.04-4.14v-3.1c-10.34-20.69-32.07-35.18-62.07-43.45l-2.07-1.04h-2.06c-23.8 4.14-51.73 20.69-86.9 49.66-9.31 7.24-17.59 15.52-25.86 22.76v-81.73h203.79c5.17 0 9.31-4.13 9.31-9.31v-22.75c0-5.18-4.14-9.32-9.31-9.32z"/>
	<path id="path24" class="s1" d="m196.45 1296.52v18.62l15.52-6.21 5.17 4.14v5.17c0 6.21-2.07 11.38-5.17 15.52-3.11 4.14-8.28 6.21-14.49 6.21-6.2 0-12.41-3.11-17.58-8.28-4.14-4.14-7.24-10.35-10.35-17.59l4.14-3.1c5.17 15.52 13.45 22.76 23.79 22.76 4.14 0 7.24-1.04 9.31-4.14 3.11-3.1 4.14-6.21 4.14-10.34 0-2.07 0-3.11-1.03-5.18l-14.49 6.21-5.17-4.14v-19.65h-23.79v-4.14h54.83v5.17h-24.83z"/>
	<path id="polygon26" class="s1" d="m226.45 1339.97v-43.45h-7.24v-4.14h19.65v4.14h-7.24v43.45z"/>
	<path id="path28" class="s1" d="m268.86 1296.52v3.1c4.14 0 8.28 1.04 12.42 4.14 4.13 3.1 6.2 6.21 6.2 10.34 0 3.11-1.03 6.21-4.14 8.28q-3.1 3.1-9.31 3.1h-1.03v-5.17h3.1q6.21 0 6.21-6.21c0-5.17-4.14-7.24-13.45-8.27v34.14h-5.17q-3.1-7.76-9.31-12.42c-4.14-4.14-9.31-6.21-13.45-6.21l-2.07-6.2c3.11-2.07 11.38-7.24 24.83-14.48v-3.11h-25.86v-5.17h54.83v5.17h-23.8zm-6.2 9.31c-2.07 1.04-5.18 2.07-8.28 5.17l-7.24 6.21c3.1 1.04 5.17 4.14 8.27 6.21 1.04 1.03 4.14 4.14 7.25 8.27z"/>
	<path id="path30" class="s1" d="m365.07 1284.1c-9.31-6.2-17.59-9.31-23.79-9.31-6.21 0-10.35 1.04-13.45 4.14-4.14 3.1-5.17 7.24-5.17 13.45h6.2v5.17h-6.2v42.42h-5.18v-42.42h-6.2v-5.17h6.2c0-7.24 2.07-12.41 7.24-16.55 4.14-4.14 10.35-5.17 17.59-5.17 4.14 0 9.31 1.03 13.45 3.1 3.1 1.03 7.24 4.14 12.41 7.24z"/>
	<path id="path32" class="s1" d="m369.21 1296.52v42.41h-5.18c-3.1-4.14-7.24-8.27-14.48-12.41q-10.86-6.21-18.62-6.21l-2.07-6.21c3.11-2.07 8.28-5.17 16.55-8.27 2.07-1.04 8.28-3.11 18.62-7.24v-2.07h-39.31v-4.14h49.66v5.17h-5.17zm-5.18 9.31c-5.17 2.07-14.48 5.17-25.86 11.38 10.35 3.1 18.62 8.28 25.86 14.48z"/>
	<path id="path34" class="s1" d="m373.34 1292.38h53.8v5.17h-53.8zm30 46.55c-6.2 0-11.37-3.1-16.55-8.27-4.13-5.17-7.24-10.35-9.31-16.55l3.11-3.11c2.07 6.21 5.17 11.38 8.27 15.52 4.14 5.17 9.31 8.28 14.48 8.28 4.14 0 7.25-1.04 10.35-4.14 2.07-3.11 3.1-6.21 3.1-10.35-4.13 3.11-7.24 4.14-11.38 4.14q-4.65 0-9.31-3.1c-3.1-2.07-4.13-5.18-4.13-9.31 0-3.11 1.03-6.21 3.1-8.28 2.07-2.07 5.17-3.1 8.27-3.1 2.07 0 5.18 1.03 6.21 2.07 2.07 1.03 2.07 3.1 2.07 5.17 0 2.07-1.03 4.14-3.1 5.17l-4.14-3.1c1.03-1.04 2.07-2.07 2.07-3.11q0-3.1-3.11-3.1c-2.06 0-3.1 1.04-4.13 2.07-1.04 1.03-2.07 3.1-2.07 4.14 0 2.07 1.03 4.14 2.07 5.17 2.07 1.03 3.1 2.07 6.2 2.07 4.14 0 8.28-2.07 11.38-5.17l5.18 5.17c0 6.21-2.07 11.38-5.18 15.52-3.1 4.13-7.24 6.2-13.45 6.2z"/>
	<path id="polygon36" class="s1" d="m432.31 1339.97v-43.45h-7.24v-4.14h18.62v4.14h-6.21v43.45z"/>
	<path id="path38" class="s1" d="m465.41 1343.07q-9.31 0-12.41-3.1c-4.14-5.18-7.24-11.38-7.24-17.59 0-4.14 1.03-8.28 4.14-13.45 2.07-3.1 5.17-6.21 9.31-11.38h-16.55v-5.17h26.89v5.17q-6.21 3.11-12.41 9.31c-4.14 5.17-5.17 9.31-5.17 14.48 0 11.38 5.17 17.59 14.48 17.59 1.03 0 3.1-1.03 4.14-2.07v5.17c-2.07 0-3.11 1.04-5.18 1.04z"/>
	<path id="path40" class="s1" d="m501.62 1296.52v42.41h-5.17v-27.93c0-1.03-1.04-2.07-2.07-5.17-3.1-5.17-8.28-8.28-13.45-8.28q-3.1 0-6.21 3.11l-3.1 3.1c2.07-1.04 4.14-1.04 6.21-1.04 3.1 0 5.17 1.04 7.24 2.07q3.1 1.55 3.1 6.21c0 3.1-1.03 6.21-4.14 9.31-2.06 3.1-5.17 5.17-8.27 6.21l-3.1-4.14c2.06-1.04 4.13-2.07 6.2-4.14 2.07-2.07 4.14-4.14 4.14-6.21 0-1.03-1.03-2.06-4.14-3.1-2.07-1.03-4.14-1.03-6.2-1.03h-2.07l-3.11-5.18 6.21-6.2c2.07-2.07 5.17-3.11 8.28-3.11q9.31 0 15.51 9.31v-10.34h11.38v5.17h-7.24z"/>
	<path id="path42" class="s1" d="m549.21 1296.52v42.41h-5.18c-3.1-4.14-7.24-8.27-14.48-12.41q-10.86-6.21-18.62-6.21l-2.07-6.21q12.42-7.76 34.14-15.51v-2.07h-37.24v-4.14h48.62v5.17h-5.17zm-6.21 9.31c-9.31 3.11-17.59 7.24-24.83 11.38 9.31 3.1 17.59 8.28 24.83 14.48zm-14.48 35.18c-2.07-2.07-4.14-3.11-8.28-5.18l2.07-4.13q4.66 1.55 9.31 6.2z"/>
	<path id="path44" class="s1" d="m627.83 1284.1c-9.31-6.2-17.59-9.31-23.8-9.31-6.2 0-10.34 1.04-13.44 4.14-4.14 3.1-5.18 7.24-5.18 13.45h6.21v5.17h-6.21v42.42h-5.17v-42.42h-7.24v-5.17h6.21c0-7.24 2.07-12.41 7.24-16.55 4.14-4.14 10.34-5.17 17.58-5.17 4.14 0 9.31 1.03 13.45 3.1 3.11 1.03 7.24 4.14 12.42 7.24z"/>
	<path id="path46" class="s1" d="m618.52 1296.52v18.62l15.51-6.21 5.18 4.14v5.17c0 6.21-2.07 11.38-5.18 15.52-3.1 4.14-8.27 6.21-14.48 6.21-6.21 0-12.41-3.11-17.58-8.28-4.14-4.14-7.25-10.35-10.35-17.59l4.14-3.1c5.17 15.52 13.45 22.76 23.79 22.76 4.14 0 7.24-1.04 9.31-4.14 3.11-3.1 4.14-6.21 4.14-10.34 0-2.07 0-3.11-1.03-5.18l-14.49 6.21-5.17-4.14v-19.65h-24.83v-4.14h54.83v5.17h-23.79z"/>
	<path id="path48" class="s1" d="m695.07 1284.1c-9.31-6.2-17.59-9.31-23.79-9.31-6.21 0-10.35 1.04-13.45 4.14-4.14 3.1-5.17 7.24-5.17 13.45h6.2v5.17h-6.2v42.42h-5.18v-42.42h-6.2v-5.17h6.2c0-7.24 2.07-12.41 7.24-16.55 4.14-4.14 10.35-5.17 17.59-5.17 4.14 0 9.31 1.03 13.45 3.1 3.1 1.03 7.24 4.14 12.41 7.24z"/>
	<path id="path50" class="s1" d="m691.97 1296.52c2.06 5.17 6.2 8.27 12.41 8.27h2.07l4.14 5.18c-3.11 6.2-5.18 11.37-5.18 14.48 0 7.24 1.04 12.41 3.11 14.48l-4.14 2.07c-3.1-4.14-4.14-8.28-4.14-13.45 0-3.1 0-6.21 1.04-8.27 0-1.04 1.03-4.14 2.06-9.31-4.13 0-8.27-2.07-11.37-4.14-4.14-3.11-6.21-6.21-7.25-9.31-6.2 4.14-9.31 9.31-9.31 13.45 0 3.1 1.04 5.17 4.14 5.17 1.04 0 3.11 0 4.14-1.04 1.03-1.03 3.1-2.07 3.1-3.1h5.18c1.03 2.07 2.06 5.17 2.06 9.31 0 10.35-5.17 16.55-16.55 16.55-2.07 0-4.14-1.03-6.2-2.07-1.04 0-3.11-2.07-6.21-3.1-2.07-3.1-4.14-7.24-7.24-13.45l3.1-3.1c1.04 4.14 4.14 8.27 8.28 13.45l4.13 2.07c1.04 1.03 3.11 1.03 4.14 1.03 3.11 0 6.21-1.03 8.28-2.07 2.07-2.07 3.1-4.14 3.1-7.24 0-2.07 0-3.1-1.03-4.14-3.11 3.1-5.17 4.14-8.28 4.14q-4.65 0-6.21-3.1c-2.06-2.07-2.06-4.14-2.06-7.25 0-4.13 2.06-8.27 6.2-13.44h-21.72v-6.21h58.96v5.17h-22.75z"/>
	<path id="path52" class="s1" d="m723 1296.52v37.24h3.1c4.14 0 9.31-1.04 14.49-4.14 5.17-3.1 8.27-6.21 8.27-11.38 0-5.17-2.07-7.24-7.24-7.24-1.03 0-4.14 1.03-7.24 3.1l-2.07-5.17c3.1-2.07 7.24-3.1 11.38-3.1 3.1 0 6.21 1.03 8.28 4.14 2.06 2.06 2.06 5.17 2.06 8.27 0 5.17-2.06 9.31-7.24 12.42-4.13 3.1-8.27 5.17-13.45 6.2-3.1 1.04-9.31 1.04-16.55 1.04v-42.42h-4.13v-3.1h33.1v-1.04c0-3.1-1.04-6.2-4.14-8.27-2.07-2.07-5.17-3.1-8.28-3.1-4.13 0-9.31 2.06-16.55 5.17l-2.07-4.14q9.31-6.21 18.62-6.21c5.18 0 9.32 2.07 12.42 5.18 3.1 3.1 5.17 7.24 5.17 11.37h8.28v5.18z"/>
	<path id="polygon54" class="s1" d="m764.38 1339.97v-43.45h-7.24v-4.14h18.62v4.14h-6.21v43.45z"/>
	<path id="path56" class="s1" d="m825.41 1296.52v42.41h-5.17v-8.27c0-10.35-2.07-15.52-7.24-15.52-2.07 0-3.1 1.03-5.17 3.1-1.04 2.07-2.07 3.1-2.07 5.17h-6.21c0-2.07-1.03-4.13-2.07-6.2-1.03-2.07-3.1-3.11-5.17-3.11-2.07 0-4.14 1.04-5.17 3.11-1.04 2.07-2.07 4.13-2.07 6.2 0 5.18 3.1 8.28 9.31 8.28h2.07l-2.07 5.17h-2.07c-4.14 0-7.24-1.03-10.34-4.14-2.07-3.1-4.14-6.2-4.14-10.34 0-4.14 1.03-7.24 4.14-10.35 2.06-3.1 6.2-4.13 10.34-4.13 4.14 0 7.24 2.07 10.35 7.24 3.1-5.17 6.2-7.24 10.34-7.24 3.1 0 5.17 2.07 7.24 7.24v-19.66h-45.52v-3.1h56.9v5.17h-6.21z"/>
	<path id="path58" class="s1" d="m858.52 1320.31c0 3.1 1.03 6.21 2.07 9.31 2.07 3.1 4.13 5.17 7.24 5.17 1.03 0 3.1 0 4.14-1.03l2.06 5.17c-2.06 1.04-4.13 1.04-5.17 1.04-9.31 0-13.45-7.25-13.45-21.73 0-8.27 5.18-16.55 15.52-25.86h8.28v5.17c-5.18 1.04-9.31 3.11-13.45 8.28-5.17 4.14-7.24 9.31-7.24 14.48z"/>
	<path id="path60" class="s1" d="m924.72 1296.52v42.41h-5.17v-8.27c0-10.35-2.07-15.52-7.24-15.52-2.07 0-3.1 1.03-5.17 3.1-1.04 2.07-2.07 3.1-2.07 5.17h-6.21c0-2.07-1.03-4.13-2.07-6.2-1.03-2.07-3.1-3.11-5.17-3.11-2.07 0-4.14 1.04-5.17 3.11-1.04 2.07-2.07 4.13-2.07 6.2 0 5.18 3.1 8.28 9.31 8.28h2.07l-2.07 5.17h-2.07c-4.14 0-7.24-1.03-10.34-4.14-2.07-3.1-4.14-6.2-4.14-10.34 0-4.14 1.03-7.24 4.14-10.35 2.06-3.1 6.2-4.13 10.34-4.13 4.14 0 7.24 2.07 10.35 7.24 3.1-5.17 6.2-7.24 10.34-7.24 3.1 0 5.17 2.07 7.24 7.24v-19.66h-45.52v-3.1h56.9v5.17h-6.21z"/>
	<path id="path62" class="s1" d="m972.31 1296.52v42.41h-5.17v-3.1c0-4.14-2.07-8.28-7.24-13.45-5.18-4.14-9.31-7.24-13.45-7.24-2.07 0-4.14 1.03-5.17 2.07-1.04 1.03-2.07 3.1-2.07 5.17 0 2.07 1.03 4.14 2.07 5.17 1.03 1.04 3.1 2.07 5.17 2.07 1.03 0 2.07 0 4.14-1.03l2.07 5.17c-2.07 1.03-4.14 1.03-7.25 1.03-3.1 0-6.2-1.03-8.27-4.13-2.07-2.07-3.11-5.18-3.11-8.28q0-4.66 3.11-9.31c2.07-2.07 5.17-4.14 9.31-4.14 8.27 0 15.52 5.17 21.72 14.48v-27.93h-38.27v-3.1h48.62v5.17h-6.21z"/>
	<path id="path64" class="s1" d="m998.17 1343.07q-9.31 0-12.41-3.1c-4.14-5.18-7.24-11.38-7.24-17.59 0-4.14 1.03-8.28 4.14-13.45 2.06-3.1 5.17-6.21 9.31-11.38h-16.56v-5.17h26.9v5.17q-6.21 3.11-12.41 9.31c-4.14 5.17-5.18 9.31-5.18 14.48 0 11.38 5.18 17.59 14.49 17.59 1.03 0 3.1-1.03 4.13-2.07v5.17c-2.06 0-3.1 1.04-5.17 1.04z"/>
	<path id="path66" class="s1" d="m1004.38 1296.52v18.62c8.28-5.17 15.52-9.31 21.72-11.38l5.18 7.24c-3.11 7.24-4.14 12.41-4.14 15.52 0 3.1 1.03 7.24 2.07 12.41l-4.14 2.07c-2.07-5.17-3.1-9.31-3.1-11.38 0-6.21 1.03-11.38 2.06-17.59-6.2 2.07-13.44 7.25-21.72 14.49l-4.14-4.14v-24.83h-4.14v-5.17h41.38v5.17h-31.03z"/>
	<path id="path68" class="s1" d="m1077.83 1296.52v42.41h-5.17v-3.1c0-4.14-2.07-8.28-7.25-13.45-5.17-4.14-9.31-7.24-13.44-7.24-2.07 0-4.14 1.03-5.18 2.07-1.03 1.03-2.07 3.1-2.07 5.17 0 2.07 1.04 4.14 2.07 5.17 1.04 1.04 3.11 2.07 5.18 2.07 1.03 0 2.06 0 4.13-1.03l2.07 5.17c-2.07 1.03-4.14 1.03-7.24 1.03-3.1 0-6.21-1.03-8.27-4.13-2.07-2.07-3.11-5.18-3.11-8.28q0-4.66 3.11-9.31c2.06-2.07 5.17-4.14 9.31-4.14 8.27 0 15.51 5.17 21.72 14.48v-27.93h-38.28v-3.1h48.62v5.17h-6.2z"/>
	<path id="rect70" class="s2" d="m166.45 52.03h916.55v1290h-916.55z"/>
	<g id="g134">
		<path id="path72" class="s3" d="m939.21 451.34c0 9.32 0 19.66-1.04 28.97-3.1 41.38-13.45 79.66-30 115.86-6.2 14.49-14.48 27.93-22.76 41.38-62.07 98.28-170.69 162.42-294.82 162.42-52.76 0-103.45-12.42-148.97-33.11-117.93-55.86-199.65-176.89-199.65-315.52 0-137.58 78.62-255.51 193.44-312.41-9.31 11.38-17.58 24.83-24.82 37.24-1.04 1.04-1.04 2.07-2.07 3.11-4.14 4.13-9.31 7.24-13.45 11.38l-15.52 15.51-3.1 3.11c-1.04 1.03-2.07 2.06-3.11 4.13-2.06 2.07-4.13 4.14-5.17 6.21-3.1 4.14-7.24 8.28-10.34 13.45-14.49 18.62-26.9 40.34-36.21 62.07l-3.1 6.2c-1.04 3.11-2.07 5.18-3.11 8.28 0 1.04-1.03 3.1-1.03 4.14-1.04 4.14-3.1 8.27-4.14 12.41-1.03 3.11-2.07 5.17-2.07 8.28 0 1.03-1.03 3.1-1.03 4.14-1.04 3.1-1.04 5.17-2.07 8.27-2.07 8.28-4.14 17.59-5.17 26.9 0 2.07-1.04 4.14-1.04 7.24 0 2.07 0 3.1-1.03 5.17 0 3.11 0 5.17-1.04 8.28v22.76c0 95.17 43.45 180 111.73 235.86 52.76 43.45 120 69.31 192.41 69.31 66.21 0 128.28-21.72 177.93-57.93 36.21-26.9 67.24-61.04 88.97-100.35 3.1-5.17 5.17-10.34 8.27-15.51 17.59-36.21 27.93-77.59 28.97-120v-10.35c0-10.34 0-19.65-1.04-28.96 1.04 0 1.04 1.03 1.04 1.03 5.17 4.14 9.31 8.28 13.45 12.41 4.14-7.24 8.27-14.48 13.45-20.69q4.65 20.18 6.2 40.35c1.04 8.28 1.04 18.62 1.04 28.96z"/>
		<path id="path74" class="s4" d="m905.07 416.17v10.35c0 62.07-25.86 113.79-28.97 120-2.07 5.17-5.17 10.34-8.27 15.51-21.73 39.31-52.76 74.49-88.97 100.35-49.65 36.21-111.72 57.93-177.93 57.93-73.45 0-140.69-25.86-192.41-69.31-68.28-55.86-111.73-140.69-111.73-235.86v-22.76c0-3.1 0-5.17 1.04-8.28 0-2.07 0-3.1 1.03-5.17 0-2.07 1.04-4.14 1.04-7.24 1.03-9.31 3.1-17.59 5.17-26.9 1.03-3.1 1.03-5.17 2.07-8.27 0-1.04 1.03-3.11 1.03-4.14 1.04-3.1 1.04-5.17 2.07-8.28 1.04-4.13 3.1-8.27 4.14-12.41 0-1.03 1.03-3.1 1.03-4.14 1.04-3.1 2.07-5.17 3.11-8.27l3.1-6.21c9.31-21.73 21.72-43.45 36.21-62.07 3.1-4.14 7.24-8.28 10.34-13.45 2.07-2.07 3.11-4.14 5.17-6.21 1.04-1.03 2.07-2.06 3.11-4.13l3.1-3.11 15.52-15.51c4.14-4.14 9.31-8.28 13.45-11.38-1.04 1.03-1.04 2.07-2.07 3.1-1.04 1.03-1.04 2.07-2.07 4.14-17.59 36.21-28.97 77.58-33.1 123.1-1.04 12.42-2.07 24.83-2.07 37.24 0 159.31 93.1 288.62 208.96 288.62h11.38c16.55 0 33.11-2.07 48.62-6.2 78.62-21.73 135.52-93.11 135.52-177.93v-5.18c-1.03-50.69-22.76-95.17-56.9-128.27 23.8 1.03 46.55 4.14 69.31 9.31 42.42 11.38 81.73 31.03 114.83 57.93 1.04 0 1.04 1.03 2.07 1.03 1.03 12.42 2.07 21.73 2.07 32.07z"/>
		<path id="path76" class="s4" d="m906.1 416.17v10.35c0 65.17-28.96 121.03-28.96 121.03-2.07 5.17-5.17 10.35-8.28 15.52-21.72 39.31-52.76 74.48-90 101.38-52.76 37.24-113.79 57.93-178.96 57.93-70.35 0-139.66-24.83-193.45-69.31-71.38-57.93-111.73-144.83-111.73-236.9 0-92.07 41.38-178.96 112.76-236.89l3.11-2.07c-1.04 1.03-1.04 2.07-2.07 3.1-1.04 1.03-1.04 2.07-2.07 3.1-69.31 57.93-109.66 142.76-109.66 232.76 0 91.04 40.35 176.9 110.69 234.83 53.8 44.48 122.07 68.28 192.42 68.28 64.13 0 125.17-19.66 176.89-56.9 36.21-25.86 67.24-61.04 88.97-100.35 3.1-5.17 5.17-10.34 8.27-15.51 0-1.04 28.97-55.86 28.97-120v-10.35c0-9.31 0-19.65-1.03-28.96v-1.04c1.03 0 1.03 1.04 2.06 1.04l1.04 1.03c1.03 9.31 1.03 18.62 1.03 27.93z"/>
		<path id="path78" class="s3" d="m823.34 226.86c0 0-248.27-46.55-365.17 169.66 0 0 20.69-150 198.62-217.24l-35.17-66.21c0 0 71.38-64.14 196.55-47.59z"/>
		<path id="path80" class="s4" d="m515.07 341.69c0 0 99.31-129.31 325.86-96.21l-3.1-75.51c0 0 95.17-3.11 171.72 63.1l-94.14 142.76c0 0-65.17-75.52-199.65-77.59-54.83-1.03-122.07 6.21-200.69 43.45z"/>
		<path id="path82" class="s4" d="m416.79 459.62c0 0-113.79-247.24 150-406.55l63.11 115.86c0 0-42.42 14.48-87.93 53.79-49.66 42.42-103.45 114.83-125.18 236.9z"/>
		<g id="g132">
			<path id="path84" class="s0" d="m566.79 392.38c0 0-21.72 5.17-20.69-6.21 0-4.14 2.07-5.17 4.14-4.14 0-2.06-4.14-7.24 5.17-10.34 3.11-4.14 6.21-8.28 7.25-10.35 1.03-3.1 3.1-6.2 11.37-5.17 8.28 2.07 17.59 10.35 18.63 12.42 5.17 0 10.34 1.03 8.27 2.07-2.07 1.03-3.1 3.1-2.07 3.1 0 0 3.11 2.07-5.17 2.07 0 2.07 2.07 2.07 3.1 3.1 1.04 1.04 0 2.07 0 2.07 0 0 1.04 4.14-3.1 3.1-4.14-2.07-4.14-3.1-6.21-3.1-1.03 0-4.14 1.03-4.14 2.07 0 1.03 5.18 4.14-1.03 5.17-1.03 1.04 2.07 2.07 0 3.1-2.07 1.04-11.38 8.28-15.52 9.32-4.13 0-5.17-1.04-5.17-3.11 0-2.07 2.07-3.1 5.17-3.1 1.04-1.04 1.04-2.07 0-2.07z"/>
			<path id="path86" class="s0" d="m564.72 415.14c-2.06 0-8.27-4.14-5.17-6.21 3.11-2.07 17.59-11.38 20.69-12.41 3.1-1.04 7.24 3.1 3.1 6.2-3.1 3.11-18.62 12.42-18.62 12.42z"/>
			<path id="path88" class="s0" d="m587.48 404.79c0-2.07 2.07-11.38 2.07-13.45 0-2.06 7.24-2.06 5.17 5.18-1.03 8.27-7.24 10.34-7.24 8.27z"/>
			<path id="path90" class="s0" d="m596.79 388.24c0 0 39.31-2.07 42.42 0 3.1 2.07 16.55 22.76 13.45 41.38-3.11 18.62-9.32 23.79-34.14 25.86 0-6.2-1.04-21.72-4.14-25.86-2.07-4.14-11.38-13.45-15.52-13.45 0 4.14-1.03 17.59-1.03 17.59 0 0-12.42 1.03-14.49-2.07v-19.66c0 0 11.38-10.34 12.42-12.41 2.07 1.04 2.07 7.24 16.55 6.21 1.03-2.07-15.52 0-15.52-17.59z"/>
			<path id="path92" class="s0" d="m582.31 405.83c0 0-12.41 10.34-15.52 12.41-1.03 3.1-3.1 14.48 13.45 14.48 1.04-7.24 2.07-26.89 2.07-26.89z"/>
			<path id="path94" class="s0" d="m552.31 421.34c-4.14 0-7.24-1.03-6.21-4.13 0-3.11 6.21-6.21 9.31-5.18 3.11 1.04 9.31 2.07 9.31 15.52 2.07 3.11 10.35 8.28 19.66 9.31 9.31 1.04 15.52-1.03 15.52 2.07v18.62c0 0-11.38 0-40.35-20.69-2.07-3.1-4.14-5.17-4.14-10.34 0-2.07-2.07-5.18-3.1-5.18z"/>
			<path id="path96" class="s0" d="m543 423.41c-5.17 0-18.62 11.38-8.28 16.56 3.11-2.07 5.18-5.18 5.18-5.18 0 0-2.07 6.21 3.1 8.28 5.17 2.07 3.1-3.1 6.21-3.1 2.07 3.1 2.07 4.13 5.17 4.13 3.1 0 3.1-8.27 0-12.41-3.1-5.17-6.21-7.24-11.38-8.28z"/>
			<path id="path98" class="s0" d="m601.97 425.48v36.21c0 0 12.41-4.14 13.44-7.24 0-6.21-2.07-28.97-13.44-28.97z"/>
			<path id="path100" class="s0" d="m573 449.28c0 0 14.48 9.31 22.76 13.44-1.04 2.07-7.24 9.31-9.31 9.31-2.07-1.03-12.42-15.51-13.45-22.75z"/>
			<path id="polygon102" class="s0" d="m503.69 462.72h18.62v7.25h-17.59z"/>
			<path id="polygon104" class="s0" d="m715.76 459.62h-81.73l13.45 10.35h68.28z"/>
			<path id="path106" class="s0" d="m618.52 458.59c1.03-1.04 10.34 6.2 8.27 7.24-3.1 1.03-27.93 12.41-30 11.38-2.07-1.04-2.07-7.24 1.04-8.28 2.07-1.03 16.55-5.17 20.69-10.34z"/>
			<path id="path108" class="s0" d="m590.59 476.17c-3.11-2.07-19.66 14.49-12.42 15.52 7.24 1.03 24.83 4.14 28.97 6.21 4.14-2.07 8.27-5.18 7.24-7.24 3.1 0 7.24 4.13 11.38 3.1 4.14-2.07 23.79-16.55 24.83-18.62-4.14-3.11-12.42-8.28-16.56-8.28-3.1 0-30 15.52-43.44 9.31z"/>
			<path id="path110" class="s0" d="m582.31 495.83c2.07 0 22.76 8.27 27.93 7.24 5.17-1.04 6.21-6.21 9.31-6.21 3.11 0 4.14 3.11 9.31 0 5.17-3.1 13.45-10.34 15.52-12.41 0 3.1 0 12.41-18.62 20.69-18.62 8.27-63.1 20.69-64.14 26.89 2.07 1.04 7.24-1.03 11.38-3.1 2.07 2.07 6.21 7.24 5.17 17.59-1.03 9.31-8.27 25.86-8.27 30v26.89c0 2.07 4.13 13.45-2.07 12.42-5.17-1.04-9.31-1.04-11.38-1.04-2.07 0-6.21 4.14-10.35 3.11-4.13-1.04-10.34-2.07-10.34-4.14 0-2.07 4.14-2.07 8.27-3.1 4.14-1.04 6.21-5.18 13.45-8.28 0-5.17-2.07-40.35-2.07-47.59 0-7.24-2.07-22.76 1.04-28.96 1.03-6.21 17.58-30 25.86-30z"/>
			<path id="path112" class="s0" d="m609.21 517.55c0 2.07 12.41 34.14 18.62 35.17 5.17 1.04 57.93-10.34 68.27-7.24 3.11 4.14 9.31 11.38 9.31 16.55 0 0 1.04 10.35 0 11.38 2.07 0 6.21-1.03 7.25-4.13 1.03-3.11 0-16.56 1.03-19.66 0-2.07 6.21-15.52-2.07-14.48-8.28 0-33.1 0-41.38-2.07-8.27-2.07-25.86-5.17-30-3.1-4.14 2.06-9.31 9.31-9.31 11.37-2.07 0-2.07-1.03-1.03-7.24 2.07-5.17 8.27-21.72 7.24-30-6.21 0-27.93 13.45-27.93 13.45z"/>
			<path id="path114" class="s0" d="m579.21 466.86c1.03 1.04 1.03 4.14 3.1 5.17l-42.41-3.1c0 0-5.18-3.1-3.11-4.14z"/>
			<path id="path116" class="s0" d="m532.66 462.72h42.41c0 0-3.1-5.17-4.14-8.27-7.24 0-39.31 1.03-39.31 1.03 0 0-4.14 0-4.14 8.28-1.03 2.07 3.11 5.17 5.18-1.04z"/>
			<path id="path118" class="s0" d="m492.31 469.97h8.28c0 0 3.1-1.04 0-4.14-3.11-3.11-8.28-5.17-4.14-11.38-4.14-1.04-10.35-2.07-9.31 11.38h-4.14c0 0-1.03-7.24-11.38-7.24-9.31 0-34.14 10.34-34.14 10.34 0 0 26.9 7.24 34.14 7.24 7.24 0 11.38-6.2 11.38-6.2h3.1c0 0 1.04 5.17 3.11 7.24v8.27c0 0-4.14 1.04-3.11 6.21 1.04 4.14 4.14 4.14 4.14 4.14 1.04 0 2.07-1.04 5.17-1.04 2.07-2.07 1.04-7.24-3.1-9.31v-6.2c0 0 3.1-2.07 3.1-4.14 0-2.07-3.1-2.07-3.1-5.17z"/>
			<path id="path120" class="s0" d="m543 511.34c3.1-2.06 4.14-6.2 4.14-6.2v-24.83c0-6.21-10.35-10.34-11.38-10.34h-1.04c-1.03 1.03-4.13 3.1-6.2 3.1-3.11 0-4.14 0-7.24-3.1-8.28 0-12.42 10.34-13.45 10.34 0 2.07-1.04 19.66 0 22.76 1.03 3.1 3.1 5.17 4.14 6.21-2.07 6.2-10.35 39.31 1.03 43.44v5.18h28.97v-6.21c10.34-4.14 3.1-32.07 1.03-40.35zm-32.07-31.03c1.04-1.03 4.14-9.31 10.35-9.31 3.1 3.1 5.17 3.1 8.27 3.1 3.11 0 5.17-2.07 7.24-3.1 3.11 1.03 9.31 4.14 9.31 8.28v24.82c0 1.04-1.03 3.11-3.1 4.14h-5.17v-10.34h-19.66v10.34h-4.14c-1.03-1.03-3.1-3.1-3.1-5.17-1.03-2.07-1.03-14.48 0-22.76zm30 70.35l-13.45-15.52-12.41 15.52c-8.28-3.11-3.1-28.97 0-40.35h26.9c2.06 11.38 7.24 36.21-1.04 40.35zm-10.34-2.07h-5.18c-1.03 0-2.07-1.04-2.07-2.07 0-1.04 1.04-2.07 2.07-2.07h5.18c1.03 0 2.07 1.03 2.07 2.07 0 1.03-1.04 2.07-2.07 2.07z"/>
			<path id="path122" class="s0" d="m536.79 521.69c3.11-4.14-1.03-7.24-1.03-7.24h-16.55c-5.18 0-3.11 7.24-3.11 7.24l10.35 9.31c0 0 7.24-4.14 10.34-9.31z"/>
			<path id="path124" class="s0" d="m530.59 532.03l10.34 12.42c0 0-1.03-14.48-1.03-18.62-3.11 0-9.31 6.2-9.31 6.2z"/>
			<path id="path126" class="s0" d="m515.07 525.83c0 5.17-1.04 18.62-1.04 18.62l10.35-12.42c0 0-6.21-6.2-9.31-6.2z"/>
			<path id="path128" class="s0" d="m534.72 494.79h2.07v-2.07c0-1.03-1.03-2.06-2.07-2.06h-15.51c-1.04 0-2.07 1.03-2.07 2.06v2.07h2.07z"/>
			<path id="path130" class="s0" d="m511.97 559.97h-2.07v2.06c0 1.04 1.03 2.07 2.07 2.07h30c1.03 0 2.06-1.03 2.06-2.07v-2.06h-2.06z"/>
		</g>
	</g>
</svg>